<svg xmlns="http://www.w3.org/2000/svg" viewBox="0 0 100 100">
  <!-- Red background -->
  <rect width="100" height="100" fill="#E30613" rx="8"/>
  
  <!-- Stylized "a" letter -->
  <g fill="#FFFFFF">
    <!-- Main body of 'a' - circular part -->
    <path d="M50 20 C28 20 15 35 15 55 C15 75 28 88 50 88 C60 88 68 84 73 78 L73 88 L85 88 L85 55 C85 35 72 20 50 20 Z M50 32 C64 32 73 42 73 55 L73 58 C68 52 60 48 50 48 C40 48 32 52 27 58 L27 55 C27 42 36 32 50 32 Z"/>
    <!-- Inner circle/hole of 'a' -->
    <circle cx="50" cy="65" r="15" fill="#E30613"/>
    <!-- Horizontal bar of the 'a' -->
    <rect x="15" y="50" width="70" height="12" fill="#FFFFFF"/>
  </g>
</svg>
